<svg xmlns="http://www.w3.org/2000/svg" width="340" height="200" viewBox="0 0 340 200"><style>* {
          font-family: 'Segoe UI', Ubuntu, "Helvetica Neue", Sans-Serif
        }</style><g class="gpsc-root"><rect x="1" y="1" rx="5" ry="5" height="99%" width="99.41176470588235%" stroke="#eceff4" stroke-width="1" fill="#2e3440" stroke-opacity="1"></rect><text x="30" y="40" class="gpsc-item" style="--gpsc-i: 0; font-size: 22px; fill: #eceff4;">Top Languages by Commit</text><g transform="translate(0,40)"><g transform="translate(40,0)"><rect y="18" width="14" height="14" class="gpsc-item" style="--gpsc-i: 0; stroke-width: 1px;" fill="#3178c6" stroke="#2e3440"></rect><rect y="43.2" width="14" height="14" class="gpsc-item" style="--gpsc-i: 1; stroke-width: 1px;" fill="#dea584" stroke="#2e3440"></rect><rect y="68.4" width="14" height="14" class="gpsc-item" style="--gpsc-i: 2; stroke-width: 1px;" fill="#ff3e00" stroke="#2e3440"></rect><rect y="93.60000000000002" width="14" height="14" class="gpsc-item" style="--gpsc-i: 3; stroke-width: 1px;" fill="#f1e05a" stroke="#2e3440"></rect><rect y="118.80000000000001" width="14" height="14" class="gpsc-item" style="--gpsc-i: 4; stroke-width: 1px;" fill="#3572A5" stroke="#2e3440"></rect><text x="16.8" y="30" class="gpsc-item" style="--gpsc-i: 0; fill: #e5e9f0; font-size: 14px;">TypeScript</text><text x="16.8" y="55.2" class="gpsc-item" style="--gpsc-i: 1; fill: #e5e9f0; font-size: 14px;">Rust</text><text x="16.8" y="80.4" class="gpsc-item" style="--gpsc-i: 2; fill: #e5e9f0; font-size: 14px;">Svelte</text><text x="16.8" y="105.60000000000002" class="gpsc-item" style="--gpsc-i: 3; fill: #e5e9f0; font-size: 14px;">JavaScript</text><text x="16.8" y="130.8" class="gpsc-item" style="--gpsc-i: 4; fill: #e5e9f0; font-size: 14px;">Python</text></g><g transform="translate( 230, 80 )"><g class="arc" style="--gpsc-i: 0;"><path d="M3.67394039744206e-15,-60A60,60,0,1,1,-53.432143870731764,-27.294798064419194L-31.168750591260196,-15.921965537577863A35,35,0,1,0,2.1431318985078682e-15,-35Z" style="fill: #3178c6; stroke-width: 2px;" stroke="#2e3440"></path></g><g class="arc" style="--gpsc-i: 1;"><path d="M-53.432143870731764,-27.294798064419194A60,60,0,0,1,-33.53787627722399,-49.751490980809976L-19.56376116171399,-29.021703072139154A35,35,0,0,0,-31.168750591260196,-15.921965537577863Z" style="fill: #dea584; stroke-width: 2px;" stroke="#2e3440"></path></g><g class="arc" style="--gpsc-i: 2;"><path d="M-33.53787627722399,-49.751490980809976A60,60,0,0,1,-19.20508078841762,-56.843336213758185L-11.202963793243613,-33.15861279135894A35,35,0,0,0,-19.56376116171399,-29.021703072139154Z" style="fill: #ff3e00; stroke-width: 2px;" stroke="#2e3440"></path></g><g class="arc" style="--gpsc-i: 3;"><path d="M-19.20508078841762,-56.843336213758185A60,60,0,0,1,-7.826536725815295,-59.4873543106387L-4.565479756725589,-34.70095668120591A35,35,0,0,0,-11.202963793243613,-33.15861279135894Z" style="fill: #f1e05a; stroke-width: 2px;" stroke="#2e3440"></path></g><g class="arc" style="--gpsc-i: 4;"><path d="M-7.826536725815295,-59.4873543106387A60,60,0,0,1,4.226888398968133e-14,-60L2.4656848993980778e-14,-35A35,35,0,0,0,-4.565479756725589,-34.70095668120591Z" style="fill: #3572A5; stroke-width: 2px;" stroke="#2e3440"></path></g></g></g></g></svg>